<svg version="1.1" id="kdco-logo" xmlns="http://www.w3.org/2000/svg" xmlns:xlink="http://www.w3.org/1999/xlink" x="0px" y="0px"
	 width="125px" height="85px" viewBox="0 0 324 218" enable-background="new 0 0 324 218" xml:space="preserve">
<g id="logomark">
	<path fill="#010101" d="M106.082,170.363c-9.554,0-17.327,7.773-17.327,17.327c0,1.554,0.225,3.052,0.61,4.485
		c-16.693-6.664-28.523-22.984-28.523-42.026c0-24.299,18.852-44.231,42.551-45.642l2.665,0.014l4.79-0.068l-0.104-9.672
		c-0.657-9.867-3.802-22.184-15.607-32.827c22.066-20.906,14.872-49.522,14.872-49.522h-3.927
		c-53.076,0-96.258,43.213-96.258,96.328c0,53.07,43.168,96.246,96.234,96.257h0.023c9.553,0,17.326-7.773,17.326-17.326
		C123.408,178.137,115.635,170.363,106.082,170.363z M19.449,108.76c0-46.314,36.473-84.263,82.182-86.589
		c0.217,24.46-21.605,40.089-21.605,40.089s20.427,15.779,21.049,32.771c-27.916,2.56-49.859,26.303-49.859,55.119
		c0,12.646,4.3,24.305,11.514,33.594C36.872,168.737,19.449,140.746,19.449,108.76z M106.082,195.391
		c-4.246,0-7.701-3.455-7.701-7.7c0-4.246,3.455-7.7,7.701-7.7c4.245,0,7.7,3.454,7.7,7.7
		C113.782,191.936,110.327,195.391,106.082,195.391z"/>
	<path fill="#010101" d="M158.061,26.539c-8.793-9.098-20.417-14.107-32.728-14.107h-5.294v91.996h5.294
		c25.908,0,46.204-19.66,46.204-44.76C171.537,47.294,166.75,35.528,158.061,26.539z M129.665,94.569V22.333
		c17.876,2.283,32.245,18.452,32.245,37.335C161.91,77.959,148.061,92.57,129.665,94.569z"/>
</g>
<g id="logotype">
	<path fill="#1C1E2D" d="M123.242,123.562l7.374-7.558h3.815l-8.563,8.576l8.612,10.367h-3.827l-6.822-8.43l-0.589,0.59v7.84h-2.858
		v-18.943h2.858V123.562z"/>
	<path fill="#1C1E2D" d="M146.614,129.622h-8.564c0.074,0.981,0.393,1.763,0.957,2.343c0.564,0.573,1.288,0.859,2.172,0.859
		c0.688,0,1.256-0.164,1.705-0.49c0.442-0.328,0.945-0.934,1.51-1.816l2.331,1.301c-0.36,0.613-0.741,1.139-1.142,1.576
		s-0.83,0.798-1.288,1.08s-0.953,0.488-1.484,0.619c-0.532,0.131-1.108,0.197-1.729,0.197c-1.783,0-3.215-0.573-4.295-1.719
		c-1.079-1.152-1.619-2.682-1.619-4.588c0-1.89,0.523-3.419,1.57-4.589c1.056-1.153,2.454-1.729,4.196-1.729
		c1.758,0,3.148,0.561,4.171,1.681c1.015,1.112,1.521,2.654,1.521,4.625L146.614,129.622z M143.779,127.365
		c-0.384-1.473-1.312-2.209-2.784-2.209c-0.336,0-0.65,0.051-0.945,0.153c-0.294,0.103-0.562,0.249-0.804,0.442
		c-0.241,0.191-0.447,0.423-0.619,0.692c-0.172,0.271-0.303,0.577-0.393,0.921H143.779z"/>
	<path fill="#1C1E2D" d="M149.632,122.997h2.761v1.067c0.507-0.531,0.957-0.896,1.35-1.092c0.4-0.205,0.875-0.307,1.423-0.307
		c0.728,0,1.488,0.237,2.282,0.711l-1.264,2.527c-0.523-0.375-1.035-0.564-1.534-0.564c-1.505,0-2.257,1.138-2.257,3.411v6.196
		h-2.761V122.997z"/>
	<path fill="#1C1E2D" d="M167.56,122.997h2.773v11.95h-2.773v-1.252c-1.137,1.063-2.359,1.596-3.668,1.596
		c-1.652,0-3.019-0.598-4.098-1.792c-1.071-1.219-1.607-2.739-1.607-4.563c0-1.791,0.536-3.284,1.607-4.479s2.412-1.791,4.024-1.791
		c1.39,0,2.638,0.572,3.741,1.717V122.997z M161.009,128.936c0,1.145,0.307,2.077,0.92,2.797c0.63,0.729,1.423,1.092,2.38,1.092
		c1.022,0,1.849-0.352,2.479-1.055c0.63-0.729,0.944-1.652,0.944-2.773c0-1.12-0.314-2.045-0.944-2.772
		c-0.63-0.712-1.448-1.067-2.454-1.067c-0.948,0-1.742,0.359-2.38,1.08C161.323,126.964,161.009,127.863,161.009,128.936z"/>
	<path fill="#1C1E2D" d="M176.61,114.225v20.723h-2.761v-20.723H176.61z"/>
	<path fill="#1C1E2D" d="M188.942,122.997h2.773v11.95h-2.773v-1.252c-1.137,1.063-2.359,1.596-3.668,1.596
		c-1.652,0-3.019-0.598-4.098-1.792c-1.071-1.219-1.607-2.739-1.607-4.563c0-1.791,0.536-3.284,1.607-4.479s2.412-1.791,4.024-1.791
		c1.39,0,2.638,0.572,3.741,1.717V122.997z M182.392,128.936c0,1.145,0.307,2.077,0.92,2.797c0.63,0.729,1.423,1.092,2.38,1.092
		c1.022,0,1.849-0.352,2.479-1.055c0.63-0.729,0.944-1.652,0.944-2.773c0-1.12-0.314-2.045-0.944-2.772
		c-0.63-0.712-1.448-1.067-2.454-1.067c-0.948,0-1.742,0.359-2.38,1.08C182.706,126.964,182.392,127.863,182.392,128.936z"/>
	<path fill="#1C1E2D" d="M203.481,134.947v-18.943h3.976c1.905,0,3.41,0.188,4.515,0.564c1.186,0.368,2.262,0.994,3.227,1.877
		c1.955,1.783,2.933,4.127,2.933,7.029c0,2.912-1.019,5.268-3.056,7.067c-1.022,0.899-2.094,1.526-3.214,1.878
		c-1.047,0.352-2.531,0.527-4.454,0.527H203.481z M206.34,132.26h1.289c1.283,0,2.351-0.135,3.202-0.404
		c0.851-0.287,1.619-0.74,2.306-1.362c1.407-1.284,2.11-2.956,2.11-5.019c0-2.076-0.695-3.762-2.085-5.055
		c-1.252-1.152-3.097-1.729-5.533-1.729h-1.289V132.26z"/>
	<path fill="#1C1E2D" d="M232.008,129.622h-8.564c0.074,0.981,0.393,1.763,0.957,2.343c0.564,0.573,1.288,0.859,2.172,0.859
		c0.688,0,1.256-0.164,1.705-0.49c0.442-0.328,0.945-0.934,1.51-1.816l2.331,1.301c-0.36,0.613-0.741,1.139-1.142,1.576
		s-0.83,0.798-1.288,1.08s-0.953,0.488-1.484,0.619c-0.532,0.131-1.108,0.197-1.729,0.197c-1.783,0-3.215-0.573-4.295-1.719
		c-1.079-1.152-1.619-2.682-1.619-4.588c0-1.89,0.523-3.419,1.57-4.589c1.056-1.153,2.454-1.729,4.196-1.729
		c1.758,0,3.148,0.561,4.171,1.681c1.015,1.112,1.521,2.654,1.521,4.625L232.008,129.622z M229.173,127.365
		c-0.384-1.473-1.312-2.209-2.784-2.209c-0.336,0-0.65,0.051-0.945,0.153c-0.294,0.103-0.562,0.249-0.804,0.442
		c-0.241,0.191-0.447,0.423-0.619,0.692c-0.172,0.271-0.303,0.577-0.393,0.921H229.173z"/>
	<path fill="#1C1E2D" d="M241.944,125.033l-2.282,1.215c-0.36-0.736-0.806-1.104-1.337-1.104c-0.254,0-0.471,0.084-0.65,0.251
		c-0.181,0.168-0.271,0.382-0.271,0.644c0,0.459,0.532,0.912,1.596,1.362c1.464,0.63,2.449,1.211,2.956,1.742
		c0.508,0.532,0.761,1.247,0.761,2.147c0,1.152-0.425,2.118-1.275,2.895c-0.826,0.736-1.824,1.105-2.994,1.105
		c-2.004,0-3.423-0.979-4.257-2.934l2.355-1.092c0.327,0.573,0.576,0.938,0.748,1.092c0.336,0.312,0.736,0.467,1.202,0.467
		c0.933,0,1.399-0.426,1.399-1.275c0-0.491-0.36-0.949-1.08-1.375c-0.278-0.139-0.557-0.273-0.834-0.404
		c-0.278-0.131-0.561-0.266-0.847-0.404c-0.802-0.394-1.366-0.786-1.693-1.179c-0.417-0.499-0.625-1.141-0.625-1.926
		c0-1.039,0.355-1.897,1.067-2.577c0.728-0.678,1.61-1.018,2.649-1.018C240.062,122.666,241.199,123.455,241.944,125.033z"/>
	<path fill="#1C1E2D" d="M244.871,118.028c0-0.482,0.176-0.899,0.527-1.251s0.773-0.528,1.264-0.528
		c0.499,0,0.924,0.177,1.276,0.528c0.352,0.343,0.527,0.764,0.527,1.264c0,0.498-0.176,0.924-0.527,1.275
		c-0.344,0.352-0.766,0.527-1.264,0.527c-0.499,0-0.925-0.176-1.276-0.527S244.871,118.535,244.871,118.028z M248.049,122.997v11.95
		h-2.761v-11.95H248.049z"/>
	<path fill="#1C1E2D" d="M263.071,134.664c0,0.564-0.018,1.062-0.055,1.491s-0.088,0.808-0.153,1.135
		c-0.196,0.899-0.581,1.673-1.153,2.319c-1.08,1.242-2.564,1.864-4.453,1.864c-1.596,0-2.908-0.429-3.938-1.288
		c-1.063-0.883-1.677-2.106-1.841-3.668h2.773c0.105,0.588,0.282,1.043,0.527,1.361c0.572,0.744,1.406,1.117,2.503,1.117
		c2.02,0,3.03-1.24,3.03-3.719v-1.668c-1.097,1.121-2.36,1.682-3.791,1.682c-1.628,0-2.961-0.59-4-1.768
		c-1.047-1.193-1.57-2.687-1.57-4.479c0-1.742,0.486-3.222,1.46-4.441c1.047-1.291,2.43-1.938,4.146-1.938
		c1.505,0,2.757,0.561,3.755,1.681v-1.35h2.76V134.664z M260.422,128.996c0-1.161-0.312-2.09-0.933-2.785
		c-0.63-0.711-1.436-1.066-2.417-1.066c-1.047,0-1.873,0.389-2.479,1.165c-0.548,0.695-0.821,1.595-0.821,2.699
		c0,1.088,0.273,1.979,0.821,2.675c0.598,0.76,1.424,1.141,2.479,1.141c1.056,0,1.89-0.385,2.503-1.153
		C260.14,130.977,260.422,130.084,260.422,128.996z"/>
	<path fill="#1C1E2D" d="M266.597,122.997h2.772v1.104c0.965-0.957,2.053-1.436,3.264-1.436c1.391,0,2.474,0.438,3.251,1.312
		c0.671,0.744,1.006,1.959,1.006,3.645v7.324h-2.772v-6.675c0-1.178-0.163-1.991-0.49-2.441c-0.319-0.458-0.9-0.687-1.742-0.687
		c-0.916,0-1.566,0.303-1.951,0.907c-0.376,0.597-0.564,1.64-0.564,3.129v5.767h-2.772V122.997z"/>
	<path fill="#1C1E2D" d="M291.228,129.622h-8.564c0.074,0.981,0.393,1.763,0.957,2.343c0.564,0.573,1.288,0.859,2.172,0.859
		c0.688,0,1.256-0.164,1.705-0.49c0.442-0.328,0.945-0.934,1.51-1.816l2.331,1.301c-0.36,0.613-0.741,1.139-1.142,1.576
		s-0.83,0.798-1.288,1.08s-0.953,0.488-1.484,0.619c-0.532,0.131-1.108,0.197-1.729,0.197c-1.783,0-3.215-0.573-4.295-1.719
		c-1.079-1.152-1.619-2.682-1.619-4.588c0-1.89,0.523-3.419,1.57-4.589c1.056-1.153,2.454-1.729,4.196-1.729
		c1.758,0,3.148,0.561,4.171,1.681c1.015,1.112,1.521,2.654,1.521,4.625L291.228,129.622z M288.393,127.365
		c-0.384-1.473-1.312-2.209-2.784-2.209c-0.336,0-0.65,0.051-0.945,0.153c-0.294,0.103-0.562,0.249-0.804,0.442
		c-0.241,0.191-0.447,0.423-0.619,0.692c-0.172,0.271-0.303,0.577-0.393,0.921H288.393z"/>
	<path fill="#1C1E2D" d="M294.245,122.997h2.761v1.067c0.507-0.531,0.957-0.896,1.35-1.092c0.4-0.205,0.875-0.307,1.423-0.307
		c0.728,0,1.488,0.237,2.282,0.711l-1.264,2.527c-0.523-0.375-1.035-0.564-1.534-0.564c-1.505,0-2.257,1.138-2.257,3.411v6.196
		h-2.761V122.997z"/>
	<path fill="#1C1E2D" d="M310.577,125.033l-2.282,1.215c-0.36-0.736-0.806-1.104-1.337-1.104c-0.254,0-0.471,0.084-0.65,0.251
		c-0.181,0.168-0.271,0.382-0.271,0.644c0,0.459,0.532,0.912,1.596,1.362c1.464,0.63,2.449,1.211,2.956,1.742
		c0.508,0.532,0.761,1.247,0.761,2.147c0,1.152-0.425,2.118-1.275,2.895c-0.826,0.736-1.824,1.105-2.994,1.105
		c-2.004,0-3.423-0.979-4.257-2.934l2.355-1.092c0.327,0.573,0.576,0.938,0.748,1.092c0.336,0.312,0.736,0.467,1.202,0.467
		c0.933,0,1.399-0.426,1.399-1.275c0-0.491-0.36-0.949-1.08-1.375c-0.278-0.139-0.557-0.273-0.834-0.404
		c-0.278-0.131-0.561-0.266-0.847-0.404c-0.802-0.394-1.366-0.786-1.693-1.179c-0.417-0.499-0.625-1.141-0.625-1.926
		c0-1.039,0.355-1.897,1.067-2.577c0.728-0.678,1.61-1.018,2.649-1.018C308.695,122.666,309.832,123.455,310.577,125.033z"/>
	<path fill="#1C1E2D" d="M134.383,144.939v3.387c-1.652-1.382-3.362-2.073-5.129-2.073c-1.946,0-3.586,0.699-4.919,2.099
		c-1.342,1.39-2.013,3.091-2.013,5.104c0,1.987,0.671,3.664,2.013,5.029c1.341,1.367,2.985,2.049,4.932,2.049
		c1.006,0,1.86-0.163,2.564-0.49c0.393-0.164,0.799-0.385,1.221-0.662c0.421-0.278,0.864-0.613,1.331-1.006v3.447
		c-1.636,0.924-3.354,1.387-5.153,1.387c-2.707,0-5.018-0.945-6.932-2.835c-1.906-1.905-2.858-4.204-2.858-6.896
		c0-2.412,0.797-4.563,2.393-6.453c1.963-2.314,4.502-3.472,7.618-3.472C131.151,143.554,132.796,144.016,134.383,144.939z"/>
	<path fill="#1C1E2D" d="M136.712,156.805c0-1.727,0.617-3.195,1.853-4.405s2.74-1.815,4.515-1.815c1.783,0,3.297,0.609,4.54,1.828
		c1.227,1.219,1.84,2.715,1.84,4.49c0,1.791-0.617,3.292-1.853,4.502c-1.243,1.203-2.769,1.805-4.576,1.805
		c-1.791,0-3.292-0.614-4.503-1.841C137.317,160.158,136.712,158.637,136.712,156.805z M139.534,156.854
		c0,1.193,0.318,2.139,0.957,2.834c0.653,0.703,1.517,1.055,2.588,1.055c1.08,0,1.942-0.348,2.589-1.043s0.97-1.623,0.97-2.785
		c0-1.161-0.323-2.09-0.97-2.785c-0.654-0.703-1.518-1.055-2.589-1.055c-1.055,0-1.909,0.352-2.563,1.055
		C139.86,154.833,139.534,155.74,139.534,156.854z"/>
	<path fill="#1C1E2D" d="M155.13,142.143v20.723h-2.761v-20.723H155.13z"/>
	<path fill="#1C1E2D" d="M161.417,142.143v20.723h-2.761v-20.723H161.417z"/>
	<path fill="#1C1E2D" d="M173.752,150.915h2.773v11.95h-2.773v-1.252c-1.137,1.063-2.359,1.596-3.668,1.596
		c-1.652,0-3.019-0.598-4.098-1.792c-1.071-1.219-1.607-2.739-1.607-4.563c0-1.791,0.536-3.284,1.607-4.479s2.412-1.791,4.024-1.791
		c1.39,0,2.638,0.572,3.741,1.717V150.915z M167.201,156.854c0,1.145,0.307,2.077,0.92,2.797c0.63,0.729,1.423,1.092,2.38,1.092
		c1.022,0,1.849-0.352,2.479-1.055c0.63-0.729,0.944-1.652,0.944-2.773c0-1.12-0.314-2.045-0.944-2.772
		c-0.63-0.712-1.448-1.067-2.454-1.067c-0.948,0-1.742,0.359-2.38,1.08C167.516,154.882,167.201,155.781,167.201,156.854z"/>
	<path fill="#1C1E2D" d="M182.811,142.143v10.158c1.104-1.145,2.355-1.717,3.754-1.717c1.611,0,2.952,0.602,4.024,1.803
		c1.071,1.195,1.607,2.684,1.607,4.467c0,1.84-0.54,3.361-1.62,4.563c-1.071,1.194-2.425,1.792-4.061,1.792
		c-1.383,0-2.618-0.532-3.705-1.596v1.252h-2.761v-20.723H182.811z M189.374,156.976c0-1.146-0.311-2.077-0.933-2.797
		c-0.63-0.736-1.419-1.104-2.368-1.104c-1.014,0-1.84,0.355-2.478,1.067c-0.63,0.704-0.945,1.62-0.945,2.748
		c0,1.161,0.312,2.091,0.933,2.785c0.622,0.712,1.439,1.067,2.454,1.067c0.957,0,1.75-0.355,2.38-1.067
		C189.055,158.955,189.374,158.055,189.374,156.976z"/>
	<path fill="#1C1E2D" d="M194.49,156.805c0-1.727,0.617-3.195,1.853-4.405s2.74-1.815,4.515-1.815c1.783,0,3.297,0.609,4.54,1.828
		c1.227,1.219,1.84,2.715,1.84,4.49c0,1.791-0.617,3.292-1.853,4.502c-1.243,1.203-2.769,1.805-4.576,1.805
		c-1.791,0-3.292-0.614-4.503-1.841C195.096,160.158,194.49,158.637,194.49,156.805z M197.312,156.854
		c0,1.193,0.318,2.139,0.957,2.834c0.653,0.703,1.517,1.055,2.588,1.055c1.08,0,1.942-0.348,2.589-1.043s0.97-1.623,0.97-2.785
		c0-1.161-0.323-2.09-0.97-2.785c-0.654-0.703-1.518-1.055-2.589-1.055c-1.055,0-1.909,0.352-2.563,1.055
		C197.639,154.833,197.312,155.74,197.312,156.854z"/>
	<path fill="#1C1E2D" d="M210.12,150.915h2.761v1.067c0.507-0.531,0.957-0.896,1.35-1.092c0.4-0.205,0.875-0.307,1.423-0.307
		c0.728,0,1.488,0.237,2.282,0.711l-1.264,2.527c-0.523-0.375-1.035-0.564-1.534-0.564c-1.505,0-2.257,1.138-2.257,3.411v6.196
		h-2.761V150.915z"/>
	<path fill="#1C1E2D" d="M228.048,150.915h2.773v11.95h-2.773v-1.252c-1.137,1.063-2.359,1.596-3.668,1.596
		c-1.652,0-3.019-0.598-4.098-1.792c-1.071-1.219-1.607-2.739-1.607-4.563c0-1.791,0.536-3.284,1.607-4.479s2.412-1.791,4.024-1.791
		c1.39,0,2.638,0.572,3.741,1.717V150.915z M221.497,156.854c0,1.145,0.307,2.077,0.92,2.797c0.63,0.729,1.423,1.092,2.38,1.092
		c1.022,0,1.849-0.352,2.479-1.055c0.63-0.729,0.944-1.652,0.944-2.773c0-1.12-0.314-2.045-0.944-2.772
		c-0.63-0.712-1.448-1.067-2.454-1.067c-0.948,0-1.742,0.359-2.38,1.08C221.812,154.882,221.497,155.781,221.497,156.854z"/>
	<path fill="#1C1E2D" d="M237.431,153.491v9.374h-2.761v-9.374h-1.178v-2.576h1.178v-4.38h2.761v4.38h2.146v2.576H237.431z"/>
	<path fill="#1C1E2D" d="M241.184,145.946c0-0.482,0.176-0.899,0.527-1.251s0.773-0.528,1.264-0.528
		c0.499,0,0.924,0.177,1.276,0.528c0.352,0.343,0.527,0.764,0.527,1.264c0,0.498-0.176,0.924-0.527,1.275
		c-0.344,0.352-0.766,0.527-1.264,0.527c-0.499,0-0.925-0.176-1.276-0.527S241.184,146.453,241.184,145.946z M244.361,150.915v11.95
		h-2.761v-11.95H244.361z"/>
	<path fill="#1C1E2D" d="M249.46,150.915l3.092,6.711l3.079-6.711h3.104l-6.208,12.771l-6.159-12.771H249.46z"/>
	<path fill="#1C1E2D" d="M271.006,157.54h-8.564c0.074,0.981,0.393,1.763,0.957,2.343c0.564,0.573,1.288,0.859,2.172,0.859
		c0.688,0,1.256-0.164,1.705-0.49c0.442-0.328,0.945-0.934,1.51-1.816l2.331,1.301c-0.36,0.613-0.741,1.139-1.142,1.576
		s-0.83,0.798-1.288,1.08s-0.953,0.488-1.484,0.619c-0.532,0.131-1.108,0.197-1.729,0.197c-1.783,0-3.215-0.573-4.295-1.719
		c-1.079-1.152-1.619-2.682-1.619-4.588c0-1.89,0.523-3.419,1.57-4.589c1.056-1.153,2.454-1.729,4.196-1.729
		c1.758,0,3.148,0.561,4.171,1.681c1.015,1.112,1.521,2.654,1.521,4.625L271.006,157.54z M268.171,155.283
		c-0.384-1.473-1.312-2.209-2.784-2.209c-0.336,0-0.65,0.051-0.945,0.153c-0.294,0.103-0.562,0.249-0.804,0.442
		c-0.241,0.191-0.447,0.423-0.619,0.692c-0.172,0.271-0.303,0.577-0.393,0.921H268.171z"/>
</g>
</svg>
